# AST/ASF file generated using VICON BodyLanguage
# -----------------------------------------------
:version 1.10
:name VICON
:units
  mass 1.0
  length 0.45
  angle deg
:documentation
   .ast/.asf automatically generated from VICON data using
   VICON BodyBuilder and BodyLanguage model FoxedUp or BRILLIANT.MOD
:root
   order TX TY TZ RX RY RZ
   axis XYZ
   position 0 0 0  
   orientation 0 0 0 
:bonedata
  begin
     id 1 
     name lhipjoint
     direction 0.643824 -0.71708 0.266994 
     length 2.52133 
     axis 0 0 0  XYZ
  end
  begin
     id 2 
     name lfemur
     direction 0.34202 -0.939693 0  
     length 7.51824  
     axis 0 0 20  XYZ
    dof rx ry rz
    limits (-160.0 20.0)
           (-70.0 70.0)
           (-60.0 70.0)
  end
  begin
     id 3 
     name ltibia
     direction 0.34202 -0.939693 0   
     length 7.3685   
     axis 0 0 20   XYZ
    dof rx
    limits (-10.0 170.0)
  end
  begin
     id 4 
     name lfoot
     direction 0.105419 -0.289636 0.951314   
     length 2.20972   
     axis -90 7.62852e-016 20   XYZ
    dof rx rz
    limits (-45.0 90.0)
           (-70.0 20.0)
  end
  begin
     id 5 
     name ltoes
     direction 1.53549e-011 -4.21833e-011 1   
     length 1.10139   
     axis -90 7.62852e-016 20   XYZ
    dof rx
    limits (-90.0 20.0)
  end
  begin
     id 6 
     name rhipjoint
     direction -0.608823 -0.743445 0.276811   
     length 2.43192  
     axis 0 0 0  XYZ 
  end
  begin
     id 7 
     name rfemur
     direction -0.34202 -0.939693 0   
     length 7.69715   
     axis 0 0 -20   XYZ
    dof rx ry rz
    limits (-160.0 20.0)
           (-70.0 70.0)
           (-70.0 60.0)
  end
  begin
     id 8 
     name rtibia
     direction -0.34202 -0.939693 0   
     length 7.44924   
     axis 0 0 -20   XYZ
    dof rx
    limits (-10.0 170.0)
 end
 begin
     id 9 
     name rfoot
     direction -0.103614 -0.284677 0.953007   
     length 2.22623  
     axis -90 -7.62852e-016 -20   XYZ
    dof rx rz
    limits (-45.0 90.0)
           (-20.0 70.0)
  end
  begin
     id 10 
     name rtoes
     direction -1.53537e-011 -4.22026e-011 1   
     length 1.11   
     axis -90 -7.62852e-016 -20   XYZ
    dof rx
    limits (-90.0 20.0)
  end
  begin
     id 11 
     name lowerback
     direction -0.0101212 0.99662 -0.0815298   
     length 2.08277   
     axis 0 0 0   XYZ
    dof rx ry rz
    limits (-20.0 45.0)
           (-30.0 30.0)
           (-30.0 30.0)
  end
  begin
     id 12 
     name upperback
     direction 0.024314 0.999591 -0.0150645   
     length 2.08524   
     axis 0 0 0   XYZ
    dof rx ry rz
    limits (-20.0 45.0)
           (-30.0 30.0)
           (-30.0 30.0)
  end
  begin
     id 13 
     name thorax
     direction 0.0285959 0.999323 0.0231357   
     length 2.09645   
     axis 0 0 0   XYZ
    dof rx ry rz
    limits (-20.0 45.0)
           (-30.0 30.0)
           (-30.0 30.0)
  end
  begin
     id 14 
     name lowerneck
     direction -0.065512 0.979301 0.191515   
     length 1.63798   
     axis 0 0 0   XYZ
    dof rx ry rz
    limits (-20.0 45.0)
           (-30.0 30.0)
           (-30.0 30.0)
  end
  begin
     id 15 
     name upperneck
     direction 0.0498479 0.98191 -0.182667   
     length 1.68731   
     axis 0 0 0   XYZ
    dof rx ry rz
    limits (-20.0 45.0)
           (-30.0 30.0)
           (-30.0 30.0)
  end
  begin
     id 16
     name head
     direction 0.0230358 0.996257 -0.0833175  
     length 1.69785  
     axis 0 0 0   XYZ
    dof rx ry rz
    limits (-20.0 45.0)
           (-30.0 30.0)
           (-30.0 30.0)
  end
  begin
     id 17 
     name lclavicle
     direction 0.967963 0.201165 -0.150269  
     length 3.63976  
     axis 0 0 0   XYZ
    dof ry rz
    limits (-20.0 10.0)
           (0.0 20.0)
  end
  begin
     id 18 
     name lhumerus
     direction 1 -4.48954e-011 -2.92837e-028   
     length 5.32462   
     axis 180 -30 -90   XYZ
    dof rx ry rz
    limits (-60.0 90.0)
           (-90.0 90.0)
           (-90.0 90.0)
  end
  begin
     id 19
     name lradius
     direction 1 -4.48958e-011 -6.39511e-027   
     length 3.48402   
     axis 180 -30 -90   XYZ
    dof rx
    limits (-10.0 170.0)
  end
  begin
     id 20
     name lwrist
     direction 1 -4.48975e-011 -1.1413e-026   
     length 1.74201   
     axis 6.88575e-015 90 90   XYZ
    dof ry
    limits (-180.0 0.0)
 end
  begin
     id 21 
     name lhand
     direction 1 -4.48899e-011 -2.28192e-026   
     length 0.572476   
     axis 1.45643e-014 90 90   XYZ
    dof rx rz
    limits (-90.0 90.0)
           (-45.0 45.0)
  end
  begin
     id 22 
     name lfingers
     direction 1 -4.49155e-011 -4.5684e-026   
     length 0.461545   
     axis 2.91283e-014 90 90   XYZ
    dof rx
    limits (0.0 90.0)
  end
  begin
     id 23
     name lthumb
     direction 0.707107 -6.34943e-011 0.707107   
     length 0.662688   
     axis -90 45 -2.25915e-014   XYZ
    dof rx rz
    limits (-45.0 45.0)
           (-45.0 45.0)
  end
  begin
     id 24 
     name rclavicle
     direction -0.964103 0.264019 -0.0282629   
     length 3.54491  
     axis 0 0 0   XYZ 
    dof ry rz
    limits (-10.0 20.0)
           (-20.0 0.0)
  end
  begin
     id 25 
     name rhumerus
     direction -1 -4.48964e-011 -2.45032e-027  
     length 5.33589   
     axis 180 30 90   XYZ
    dof rx ry rz
    limits (-90.0 60.0)
           (-90.0 90.0)
           (-90.0 90.0)
  end
  begin
     id 26 
     name rradius
     direction -1 -4.48987e-011 -1.55093e-027   
     length 3.64134   
     axis 180 30 90   XYZ
    dof rx
    limits (-10.0 170.0)
  end
  begin
     id 27 
     name rwrist
     direction -1 -4.4897e-011 -1.14128e-026   
     length 1.82067   
     axis 6.88575e-015 -90 -90   XYZ
    dof ry
    limits (-180.0 0.0)
  end
  begin
     id 28
     name rhand
     direction -1 -4.49021e-011 -2.28301e-026   
     length 0.734811   
     axis 1.45643e-014 -90 -90   XYZ
    dof rx rz
    limits (-90.0 90.0)
           (-45.0 45.0)
  end
  begin
     id 29
     name rfingers
     direction -1 -4.48862e-011 -4.56319e-026   
     length 0.592424   
     axis 2.91283e-014 -90 -90   XYZ
    dof rx
    limits (0.0 90.0)
  end
  begin
     id 30
     name rthumb
     direction -0.707107 -6.34978e-011 0.707107   
     length 0.850605   
     axis -90 -45 2.25915e-014   XYZ
    dof rx rz
    limits (-45.0 45.0)
           (-45.0 45.0)
  end
:hierarchy
  begin
    root lhipjoint rhipjoint lowerback
    lhipjoint lfemur
    lfemur ltibia
    ltibia lfoot
    lfoot ltoes
    rhipjoint rfemur
    rfemur rtibia
    rtibia rfoot
    rfoot rtoes
    lowerback upperback
    upperback thorax
    thorax lowerneck lclavicle rclavicle
    lowerneck upperneck
    upperneck head
    lclavicle lhumerus
    lhumerus lradius
    lradius lwrist
    lwrist lhand lthumb
    lhand lfingers
    rclavicle rhumerus
    rhumerus rradius
    rradius rwrist
    rwrist rhand rthumb
    rhand rfingers
  end

#!OML:ASF F:\VICON\USERDATA\INSTALL\rory3\rory3.ASF
:FULLY-SPECIFIED
:DEGREES
79
root 1.49409 17.4989 0.0528347 -4.18072 -22.9955 3.51988
lowerback 4.5343 -1.73384 -6.75914
upperback 0.630628 -2.62471 1.01698
thorax -1.53929 -1.27553 4.99371
lowerneck -25.3465 -1.05924 -10.5143
upperneck 10.973 1.79299 1.6922
head 7.33798 0.540042 2.46021
rclavicle -1.54866e-014 0
rhumerus -8.07418 -13.4301 -14.2222
rradius 79.1084
rwrist 12.673
rhand -28.0915 5.11096
rfingers 7.12502
rthumb -1.47429 -24.8637
lclavicle -1.54866e-014 0
lhumerus 3.18083 5.68921 14.3874
lradius 69.7822
lwrist 0.248888
lhand -14.2716 21.7342
lfingers 7.12502
lthumb 11.8672 51.3779
rfemur -20.1208 -0.460947 7.07481
rtibia 48.4805
rfoot -12.6452 -4.56997
rtoes -4.26259
lfemur -0.949697 2.7239 -28.1907
ltibia 25.7646
lfoot -17.3119 6.26646
ltoes -7.43088
80
root 1.48473 17.4992 0.0832372 -4.34477 -23.0936 3.57343
lowerback 4.46831 -1.74761 -6.77238
upperback 0.616 -2.63897 1.03804
thorax -1.51394 -1.28313 5.02139
lowerneck -25.455 -0.921819 -10.4622
upperneck 10.6593 1.97702 1.6029
head 7.23884 0.631442 2.4419
rclavicle 1.31602e-014 1.31198e-014
rhumerus -6.94053 -14.098 -12.4152
rradius 79.5118
rwrist 12.2144
rhand -28.3051 5.84728
rfingers 7.12502
rthumb -1.68055 -24.1258
lclavicle 1.31602e-014 1.31198e-014
lhumerus 4.12471 6.79404 12.5947
lradius 69.4173
lwrist 0.0772169
lhand -15.1801 22.2017
lfingers 7.12502
lthumb 10.9911 51.894
rfemur -20.1791 -0.270166 6.96501
rtibia 48.881
rfoot -12.989 -5.13076
rtoes -4.57482
lfemur -0.55507 2.76752 -28.2444
ltibia 25.5099
lfoot -17.303 6.31452
ltoes -7.46219
81
root 1.47291 17.4979 0.115517 -4.58738 -23.1174 3.75543
lowerback 4.46495 -1.71283 -6.90035
upperback 0.585137 -2.59989 1.01633
thorax -1.54472 -1.26088 5.06985
lowerneck -25.4967 -0.857895 -10.4648
upperneck 10.3093 2.06745 1.53852
head 7.12251 0.679963 2.42759
rclavicle -3.59428e-014 4.37326e-015
rhumerus -5.98448 -14.8867 -10.5786
rradius 79.9073
rwrist 11.6647
rhand -28.3169 6.44191
rfingers 7.12502
rthumb -1.69202 -23.5311
lclavicle -3.59428e-014 4.37326e-015
lhumerus 5.2121 7.87941 10.9713
lradius 68.9792
lwrist -0.0854285
lhand -16.0278 22.705
lfingers 7.12502
lthumb 10.1733 52.439
rfemur -20.1661 -0.20051 6.72733
rtibia 49.1848
rfoot -13.2871 -5.43688
rtoes -5.04422
lfemur -0.114559 2.78623 -28.4269
ltibia 25.236
lfoot -17.2848 6.32316
ltoes -7.44733
82
root 1.45834 17.4926 0.145442 -4.81655 -23.0519 3.86627
lowerback 4.54245 -1.69327 -6.95317
upperback 0.527171 -2.58488 0.967751
thorax -1.65036 -1.24737 5.05294
lowerneck -25.4496 -0.8004 -10.4728
upperneck 9.98358 2.12735 1.55896
head 7.00158 0.722018 2.43863
rclavicle -5.38155e-015 -9.54166e-015
rhumerus -5.11436 -15.706 -8.80068
rradius 80.2596
rwrist 10.9884
rhand -28.1048 7.05157
rfingers 7.12502
rthumb -1.4871 -22.923
lclavicle -5.38155e-015 -9.54166e-015
lhumerus 6.36192 9.05241 9.41623
lradius 68.4959
lwrist -0.163492
lhand -15.4909 22.5188
lfingers 7.12502
lthumb 10.6913 52.2268
rfemur -20.0939 -0.234314 6.58218
rtibia 49.4047
rfoot -13.5785 -5.48297
rtoes -4.88213
lfemur 0.348841 2.73657 -28.524
ltibia 24.9685
lfoot -17.3128 6.29332
ltoes -7.35876
83
root 1.44294 17.4877 0.172812 -5.00635 -22.955 3.93375
lowerback 4.62707 -1.66667 -6.98048
upperback 0.460805 -2.55987 0.936593
thorax -1.77045 -1.22815 5.03982
lowerneck -25.4571 -0.741007 -10.4254
upperneck 9.75912 2.19212 1.50998
head 6.92452 0.757878 2.41995
rclavicle 1.13424e-013 -8.74653e-015
rhumerus -4.28042 -16.6599 -7.1145
rradius 80.5466
rwrist 10.8213
rhand -28.1456 7.27485
rfingers 7.12502
rthumb -1.52658 -22.6994
lclavicle 1.13424e-013 -8.74653e-015
lhumerus 7.552 10.284 8.07416
lradius 67.8651
lwrist -0.570937
lhand -14.9602 22.1822
lfingers 7.12502
lthumb 11.2031 51.8631
rfemur -20.0137 -0.273639 6.4868
rtibia 49.5374
rfoot -13.9106 -5.46974
rtoes -3.88322
lfemur 0.76421 2.72058 -28.5631
ltibia 24.756
lfoot -17.31 6.25567
ltoes -7.7634
84
root 1.42811 17.4855 0.201952 -5.09091 -22.8506 3.93022
lowerback 4.51329 -1.6929 -6.90175
upperback 0.445786 -2.58331 0.907538
thorax -1.72383 -1.24179 4.96186
lowerneck -25.5178 -0.647986 -10.288
upperneck 9.53282 2.28692 1.4026
head 6.85506 0.805726 2.37186
rclavicle -4.16982e-014 -3.97569e-016
rhumerus -3.35477 -17.6894 -5.63772
rradius 80.8026
rwrist 10.9933
rhand -28.7509 6.94162
rfingers 7.12502
rthumb -2.11113 -23.0277
lclavicle -4.16982e-014 -3.97569e-016
lhumerus 8.6813 11.7339 6.83271
lradius 67.2274
lwrist -0.906862
lhand -14.5828 22.0686
lfingers 7.12502
lthumb 11.5671 51.7294
rfemur -19.9777 -0.31504 6.45713
rtibia 49.5946
rfoot -14.2851 -5.56783
rtoes -3.29278
lfemur 1.08128 2.69746 -28.5331
ltibia 24.5783
lfoot -17.3415 6.19457
ltoes -8.48341
85
root 1.41132 17.4831 0.231155 -5.1872 -22.8375 3.89448
lowerback 4.33671 -1.76631 -6.79911
upperback 0.48665 -2.66211 0.888998
thorax -1.57724 -1.28857 4.87975
lowerneck -25.4422 -0.508378 -10.4248
upperneck 9.13587 2.45658 1.65199
head 6.69483 0.920944 2.49148
rclavicle -5.27401e-015 -4.37326e-015
rhumerus -2.20008 -18.8144 -4.40995
rradius 81.0599
rwrist 10.8528
rhand -29.2378 6.83166
rfingers 7.12502
rthumb -2.58138 -23.1325
lclavicle -5.27401e-015 -4.37326e-015
lhumerus 9.48913 13.3164 5.41762
lradius 66.738
lwrist -1.01179
lhand -14.3114 21.9312
lfingers 7.12502
lthumb 11.8288 51.5771
rfemur -19.9307 -0.263039 6.47913
rtibia 49.5864
rfoot -14.6229 -5.83973
rtoes -3.79679
lfemur 1.41238 2.74534 -28.4504
ltibia 24.4053
lfoot -17.4068 6.09728
ltoes -9.07506
86
root 1.39488 17.4791 0.263041 -5.36706 -22.8537 3.9403
lowerback 4.41388 -1.77842 -6.8412
upperback 0.383357 -2.68816 0.939214
thorax -1.71985 -1.29293 4.96298
lowerneck -25.281 -0.446974 -10.7385
upperneck 8.90868 2.5754 1.9046
head 6.57947 0.999312 2.63403
rclavicle 5.77097e-015 3.57812e-015
rhumerus -1.08867 -19.7559 -2.99308
rradius 81.2611
rwrist 10.4021
rhand -29.5823 6.56106
rfingers 7.12502
rthumb -2.91407 -23.3988
lclavicle 5.77097e-015 3.57812e-015
lhumerus 10.1448 14.703 4.18824
lradius 66.3397
lwrist -1.00982
lhand -14.0611 22.1988
lfingers 7.12502
lthumb 12.0702 51.8307
rfemur -19.8145 -0.218806 6.41387
rtibia 49.513
rfoot -14.7338 -6.12933
rtoes -4.85037
lfemur 1.8084 2.88603 -28.4194
ltibia 24.2447
lfoot -17.5553 5.83287
ltoes -8.64248
87
root 1.3777 17.4737 0.297556 -5.55704 -22.806 4.09737
lowerback 4.55618 -1.76506 -6.98929
upperback 0.193788 -2.69399 0.955152
thorax -1.98832 -1.27879 5.07453
lowerneck -25.2604 -0.380644 -10.7266
upperneck 8.93481 2.67152 1.811
head 6.5807 1.03564 2.61249
rclavicle 1.20513e-014 -1.23246e-014
rhumerus -0.0206122 -20.6463 -1.63161
rradius 81.3237
rwrist 10.0144
rhand -30.0776 5.84795
rfingers 7.12502
rthumb -3.39243 -24.1048
lclavicle 1.20513e-014 -1.23246e-014
lhumerus 10.965 15.9678 3.30575
lradius 65.8516
lwrist -0.819607
lhand -13.8595 21.8403
lfingers 7.12502
lthumb 12.2646 51.4607
rfemur -19.6796 -0.264328 6.18802
rtibia 49.3729
rfoot -14.8836 -6.1263
rtoes -4.2024
lfemur 2.17974 3.07625 -28.4941
ltibia 24.0898
lfoot -17.6699 5.57368
ltoes -8.53469
